<svg width="21" height="21" viewBox="0 0 21 21" fill="none" xmlns="http://www.w3.org/2000/svg">
<path d="M20.6854 9.78624L9.90617 0.115028C9.82343 0.041292 9.71786 0 9.60659 0H7.08154C6.87041 0 6.7734 0.271348 6.93318 0.412921L16.9249 9.37921H0.228253C0.102714 9.37921 0 9.48539 0 9.61517V11.3848C0 11.5146 0.102714 11.6208 0.228253 11.6208H16.9221L6.93033 20.5871C6.77055 20.7316 6.86756 21 7.07869 21H9.68933C9.74354 21 9.79775 20.9794 9.83769 20.941L20.6854 11.2138C20.7842 11.125 20.8634 11.0153 20.9176 10.8922C20.9719 10.769 21 10.6353 21 10.5C21 10.3647 20.9719 10.231 20.9176 10.1078C20.8634 9.98469 20.7842 9.87503 20.6854 9.78624Z" fill="white"/>
</svg>
