<svg width="24" height="25" viewBox="0 0 24 25" fill="none" xmlns="http://www.w3.org/2000/svg">
<path d="M23.9338 13.1921L12.8076 0.369634C12.707 0.253607 12.5827 0.160554 12.443 0.0967797C12.3033 0.0330055 12.1516 0 11.998 0C11.8445 0 11.6927 0.0330055 11.553 0.0967797C11.4134 0.160554 11.289 0.253607 11.1884 0.369634L0.065572 13.1921C0.0319609 13.2308 0.0101674 13.2783 0.00278775 13.3289C-0.00459186 13.3796 0.0027533 13.4314 0.0239482 13.478C0.0451431 13.5246 0.0792946 13.5642 0.122335 13.5919C0.165375 13.6197 0.215489 13.6345 0.266709 13.6346H2.98206C3.13626 13.6346 3.28376 13.5676 3.38769 13.4502L10.7258 4.99243V23.8691C10.7258 24.0166 10.8465 24.1373 10.994 24.1373H13.0054C13.1529 24.1373 13.2736 24.0166 13.2736 23.8691V4.99243L20.6117 13.4502C20.7123 13.5676 20.8598 13.6346 21.0173 13.6346H23.7327C23.9606 13.6346 24.0847 13.3664 23.9338 13.1921Z" fill="#430103"/>
</svg>
