<svg width="42" height="42" viewBox="0 0 42 42" fill="none" xmlns="http://www.w3.org/2000/svg">
<g clip-path="url(#clip0_112_67)">
<rect width="42" height="42" fill="white"/>
<path d="M31.78 10H10.22C10.099 10 10 10.1125 10 10.25V12.25C10 12.3875 10.099 12.5 10.22 12.5H31.78C31.901 12.5 32 12.3875 32 12.25V10.25C32 10.1125 31.901 10 31.78 10ZM31.78 29.5H10.22C10.099 29.5 10 29.6125 10 29.75V31.75C10 31.8875 10.099 32 10.22 32H31.78C31.901 32 32 31.8875 32 31.75V29.75C32 29.6125 31.901 29.5 31.78 29.5ZM31.78 19.75H10.22C10.099 19.75 10 19.8625 10 20V22C10 22.1375 10.099 22.25 10.22 22.25H31.78C31.901 22.25 32 22.1375 32 22V20C32 19.8625 31.901 19.75 31.78 19.75Z" fill="#430103"/>
</g>
<defs>
<clipPath id="clip0_112_67">
<rect width="42" height="42" fill="white"/>
</clipPath>
</defs>
</svg>
