<svg width="24" height="19" viewBox="0 0 24 19" fill="none" xmlns="http://www.w3.org/2000/svg">
<path d="M23.1429 1.72727H18.8571V0.215909C18.8571 0.0971591 18.7607 0 18.6429 0H17.1429C17.025 0 16.9286 0.0971591 16.9286 0.215909V1.72727H12.9643V0.215909C12.9643 0.0971591 12.8679 0 12.75 0H11.25C11.1321 0 11.0357 0.0971591 11.0357 0.215909V1.72727H7.07143V0.215909C7.07143 0.0971591 6.975 0 6.85714 0H5.35714C5.23929 0 5.14286 0.0971591 5.14286 0.215909V1.72727H0.857143C0.383036 1.72727 0 2.11321 0 2.59091V18.1364C0 18.6141 0.383036 19 0.857143 19H23.1429C23.617 19 24 18.6141 24 18.1364V2.59091C24 2.11321 23.617 1.72727 23.1429 1.72727ZM22.0714 17.0568H1.92857V3.67045H5.14286V5.18182C5.14286 5.30057 5.23929 5.39773 5.35714 5.39773H6.85714C6.975 5.39773 7.07143 5.30057 7.07143 5.18182V3.67045H11.0357V5.18182C11.0357 5.30057 11.1321 5.39773 11.25 5.39773H12.75C12.8679 5.39773 12.9643 5.30057 12.9643 5.18182V3.67045H16.9286V5.18182C16.9286 5.30057 17.025 5.39773 17.1429 5.39773H18.6429C18.7607 5.39773 18.8571 5.30057 18.8571 5.18182V3.67045H22.0714V17.0568ZM9.42857 9.06818H4.5C4.38214 9.06818 4.28571 9.16534 4.28571 9.28409V10.5795C4.28571 10.6983 4.38214 10.7955 4.5 10.7955H9.42857C9.54643 10.7955 9.64286 10.6983 9.64286 10.5795V9.28409C9.64286 9.16534 9.54643 9.06818 9.42857 9.06818ZM9.42857 12.7386H4.5C4.38214 12.7386 4.28571 12.8358 4.28571 12.9545V14.25C4.28571 14.3688 4.38214 14.4659 4.5 14.4659H9.42857C9.54643 14.4659 9.64286 14.3688 9.64286 14.25V12.9545C9.64286 12.8358 9.54643 12.7386 9.42857 12.7386ZM17.6839 7.95085L14.9089 11.8291L13.4946 9.85625C13.4143 9.7429 13.2857 9.67812 13.1491 9.67812H11.6786C11.5045 9.67812 11.4027 9.87784 11.5045 10.0209L14.5607 14.2905C14.6002 14.3457 14.6521 14.3906 14.7122 14.4216C14.7722 14.4526 14.8388 14.4687 14.9062 14.4687C14.9737 14.4687 15.0403 14.4526 15.1003 14.4216C15.1604 14.3906 15.2123 14.3457 15.2518 14.2905L19.6714 8.11818C19.7732 7.97514 19.6714 7.77543 19.4973 7.77543H18.0268C17.8929 7.77273 17.7643 7.8402 17.6839 7.95085Z" fill="#430103"/>
</svg>
