<svg width="31" height="22" viewBox="0 0 31 22" fill="none" xmlns="http://www.w3.org/2000/svg">
<path d="M1 11.9965V10.0035C1 5.92553 1 3.88659 2.27533 2.57467C3.55067 1.26274 5.5585 1.20596 9.57415 1.09238C11.477 1.03856 13.4208 1 15.0844 1C16.7481 1 18.6918 1.03856 20.5947 1.09238C24.6103 1.20596 26.6181 1.26274 27.8935 2.57467C29.1688 3.88659 29.1688 5.92553 29.1688 10.0035V11.9965C29.1688 16.0744 29.1688 18.1134 27.8935 19.4252C26.6181 20.7372 24.6104 20.7939 20.5948 20.9076C18.6918 20.9614 16.7481 21 15.0844 21C13.4208 21 11.4769 20.9614 9.57402 20.9076C5.55843 20.7939 3.55064 20.7372 2.27531 19.4252C1 18.1134 1 16.0744 1 11.9965Z" stroke="white" stroke-width="2"/>
<path d="M17.9022 10.9995L12.9727 13.8164V8.18262L17.9022 10.9995Z" stroke="white" stroke-width="2" stroke-linecap="round" stroke-linejoin="round"/>
</svg>
