<svg width="16" height="14" viewBox="0 0 16 14" fill="none" xmlns="http://www.w3.org/2000/svg">
<path d="M15 1.0064C15 1.0064 13.7159 1.76502 13.0018 1.98004C12.6185 1.53936 12.1092 1.22702 11.5426 1.08526C10.9761 0.943503 10.3797 0.979158 9.83406 1.18741C9.28845 1.39567 8.81989 1.76647 8.49191 2.24967C8.16386 2.73287 7.99217 3.30516 8 3.88913V4.52549C6.88165 4.55448 5.77354 4.30646 4.77428 3.8035C3.77502 3.30054 2.91566 2.55826 2.27273 1.64276C2.27273 1.64276 -0.272727 7.37006 5.45455 9.91552C4.14397 10.8051 2.58274 11.2512 1 11.1882C6.72727 14.3701 13.7273 11.1882 13.7273 3.87004C13.7267 3.69278 13.7096 3.51596 13.6764 3.34186C14.3258 2.70135 15 1.0064 15 1.0064Z" stroke="white" stroke-width="1.5" stroke-linecap="round" stroke-linejoin="round"/>
</svg>
