<svg width="18" height="14" viewBox="0 0 18 14" fill="none" xmlns="http://www.w3.org/2000/svg">
<path d="M10.6008 6.68008L7.80078 8.28008V5.08008L10.6008 6.68008Z" stroke="white" stroke-linecap="round" stroke-linejoin="round"/>
<path d="M1 7.24608V6.114C1 3.79772 1 2.63959 1.72439 1.89442C2.44879 1.14924 3.58925 1.11698 5.87015 1.05247C6.95098 1.0219 8.05504 1 9 1C9.94496 1 11.049 1.0219 12.1298 1.05247C14.4107 1.11698 15.5512 1.14924 16.2756 1.89442C17 2.63959 17 3.79772 17 6.114V7.24608C17 9.56232 17 10.7205 16.2756 11.4656C15.5512 12.2108 14.4108 12.243 12.1299 12.3076C11.049 12.3382 9.94496 12.3601 9 12.3601C8.05504 12.3601 6.95094 12.3382 5.87008 12.3076C3.58921 12.243 2.44878 12.2108 1.72438 11.4656C1 10.7205 1 9.56232 1 7.24608Z" stroke="white" stroke-width="1.5"/>
</svg>
