<svg width="27" height="22" viewBox="0 0 27 22" fill="none" xmlns="http://www.w3.org/2000/svg">
<path d="M25.5211 1.01121C25.5211 1.01121 23.272 2.33993 22.0213 2.71654C21.35 1.9447 20.4578 1.39763 19.4655 1.14933C18.4732 0.901045 17.4286 0.963496 16.4729 1.32826C15.5173 1.69302 14.6966 2.34248 14.1221 3.18881C13.5476 4.03514 13.2468 5.0375 13.2606 6.06033V7.17493C11.3018 7.22571 9.36088 6.79129 7.61068 5.91035C5.86046 5.02941 4.35529 3.7293 3.22919 2.12581C3.22919 2.12581 -1.22919 12.1572 8.80217 16.6156C6.50669 18.1737 3.77218 18.955 1 18.8448C11.0314 24.4178 23.2919 18.8448 23.2919 6.02689C23.2909 5.71642 23.261 5.40672 23.2027 5.10178C24.3403 3.97993 25.5211 1.01121 25.5211 1.01121Z" stroke="white" stroke-width="2" stroke-linecap="round" stroke-linejoin="round"/>
</svg>
