<svg width="42" height="42" viewBox="0 0 42 42" fill="none" xmlns="http://www.w3.org/2000/svg">
<g clip-path="url(#clip0_119_136)">
<rect width="42" height="42" fill="white"/>
<path d="M31.9339 30.4187L24.7922 23.2769C25.9004 21.8442 26.4999 20.0925 26.4999 18.25C26.4999 16.0445 25.6392 13.9765 24.0827 12.4172C22.5262 10.858 20.4527 10 18.25 10C16.0472 10 13.9737 10.8607 12.4172 12.4172C10.858 13.9737 10 16.0445 10 18.25C10 20.4527 10.8607 22.5262 12.4172 24.0827C13.9737 25.6419 16.0445 26.4999 18.25 26.4999C20.0925 26.4999 21.8414 25.9004 23.2742 24.7949L30.4159 31.9339C30.4369 31.9549 30.4617 31.9715 30.4891 31.9828C30.5165 31.9942 30.5458 32 30.5754 32C30.605 32 30.6344 31.9942 30.6617 31.9828C30.6891 31.9715 30.714 31.9549 30.7349 31.9339L31.9339 30.7377C31.9549 30.7167 31.9715 30.6919 31.9828 30.6645C31.9942 30.6371 32 30.6078 32 30.5782C32 30.5485 31.9942 30.5192 31.9828 30.4918C31.9715 30.4645 31.9549 30.4396 31.9339 30.4187ZM22.6059 22.6059C21.44 23.7692 19.8945 24.4099 18.25 24.4099C16.6055 24.4099 15.06 23.7692 13.894 22.6059C12.7307 21.44 12.09 19.8945 12.09 18.25C12.09 16.6055 12.7307 15.0572 13.894 13.894C15.06 12.7307 16.6055 12.09 18.25 12.09C19.8945 12.09 21.4427 12.728 22.6059 13.894C23.7692 15.06 24.4099 16.6055 24.4099 18.25C24.4099 19.8945 23.7692 21.4427 22.6059 22.6059Z" fill="#430103"/>
</g>
<defs>
<clipPath id="clip0_119_136">
<rect width="42" height="42" fill="white"/>
</clipPath>
</defs>
</svg>
