<svg width="34" height="24" viewBox="0 0 34 24" fill="none" xmlns="http://www.w3.org/2000/svg">
<path d="M19.9716 11.9019L14.7087 14.9092V8.89453L19.9716 11.9019Z" fill="#430103" stroke="#430103" stroke-width="2" stroke-linecap="round" stroke-linejoin="round"/>
<path d="M1.92773 12.9657V10.8378C1.92773 6.48416 1.92773 4.30735 3.28929 2.90672C4.65087 1.5061 6.79446 1.44547 11.0816 1.32421C13.1132 1.26676 15.1883 1.22559 16.9645 1.22559C18.7406 1.22559 20.8158 1.26676 22.8473 1.32421C27.1344 1.44547 29.278 1.5061 30.6396 2.90672C32.0012 4.30735 32.0012 6.48416 32.0012 10.8378V12.9657C32.0012 17.3192 32.0012 19.4961 30.6396 20.8966C29.278 22.2973 27.1346 22.3579 22.8474 22.4793C20.8158 22.5367 18.7406 22.5779 16.9645 22.5779C15.1883 22.5779 13.1131 22.5367 11.0815 22.4793C6.79439 22.3579 4.65084 22.2973 3.28928 20.8966C1.92773 19.4961 1.92773 17.3192 1.92773 12.9657Z" stroke="#430103" stroke-width="2"/>
</svg>
