<svg width="28" height="24" viewBox="0 0 28 24" fill="none" xmlns="http://www.w3.org/2000/svg">
<path d="M26.4861 1.23724C26.4861 1.23724 24.1484 2.61825 22.8485 3.00968C22.1508 2.20746 21.2236 1.63886 20.1922 1.3808C19.1608 1.12274 18.0751 1.18765 17.0818 1.56676C16.0886 1.94588 15.2356 2.6209 14.6385 3.50053C14.0413 4.38017 13.7288 5.42197 13.743 6.48506V7.64351C11.7072 7.69629 9.68991 7.24478 7.87083 6.32917C6.05173 5.41356 4.48733 4.06229 3.31692 2.3957C3.31692 2.3957 -1.31692 12.8219 9.10921 17.4557C6.7234 19.0751 3.88127 19.8872 1 19.7726C11.4261 25.5649 24.1692 19.7726 24.1692 6.4503C24.1681 6.12761 24.1371 5.80572 24.0765 5.48878C25.2588 4.32278 26.4861 1.23724 26.4861 1.23724Z" stroke="#430103" stroke-width="2" stroke-linecap="round" stroke-linejoin="round"/>
</svg>
